<svg xmlns="http://www.w3.org/2000/svg" width="53.301" height="37.28" viewBox="0 0 53.301 37.28">
  <g id="telephone_113307" transform="translate(0 -50.046)">
    <path id="Path_1417" data-name="Path 1417" d="M46.479,53.114A17.529,17.529,0,0,0,39.9,50.3a3.652,3.652,0,0,0-1.322-.252H14.722A3.652,3.652,0,0,0,13.4,50.3a17.53,17.53,0,0,0-6.576,2.816c-5.964,4.1-8.5,10.776-5.659,14.9a3.124,3.124,0,0,0,1.359.87l11.923-8.611c.091.007.182.016.275.016H38.581c.093,0,.184-.009.275-.016l11.923,8.611a3.122,3.122,0,0,0,1.359-.87c2.839-4.126.305-10.8-5.66-14.9Z" transform="translate(0)"/>
    <path id="Path_1418" data-name="Path 1418" d="M50.915,130.726H30.356l-13.706,9.6v12.552s1.364,2.215,3.046,2.215h41.88c1.682,0,3.046-1.037,3.046-2.215V140.325l-13.706-9.6Zm-10.28,20.106a7.923,7.923,0,1,1,7.923-7.923A7.923,7.923,0,0,1,40.636,150.832Z" transform="translate(-13.985 -67.766)"/>
    <circle id="Ellipse_2" data-name="Ellipse 2" cx="2.161" cy="2.161" r="2.161" transform="translate(24.49 68.63)"/>
    <circle id="Ellipse_3" data-name="Ellipse 3" cx="2.161" cy="2.161" r="2.161" transform="translate(28.812 72.951)"/>
    <circle id="Ellipse_4" data-name="Ellipse 4" cx="2.161" cy="2.161" r="2.161" transform="translate(20.169 72.951)"/>
    <circle id="Ellipse_5" data-name="Ellipse 5" cx="2.161" cy="2.161" r="2.161" transform="translate(24.49 77.273)"/>
  </g>
</svg>
